<?xml version="1.0" encoding="utf-8"?>
<!-- Generator: Adobe Illustrator 21.0.0, SVG Export Plug-In . SVG Version: 6.00 Build 0)  -->
<svg version="1.1" id="Layer_1" xmlns="http://www.w3.org/2000/svg" xmlns:xlink="http://www.w3.org/1999/xlink" x="0px" y="0px"
	 viewBox="0 0 200 70" style="enable-background:new 0 0 200 70;" xml:space="preserve">
<style type="text/css">
	.st0{fill:#FFFFFF;}
</style>
<g>
	<path class="st0" d="M81.9,25.8c-2.3,0-4.4,0.9-6.1,2.6V16.8l-3.6,0.4v32.3h3.2l0.2-2c1.6,1.6,3.7,2.5,6,2.5c5.6,0,9-4.7,9-12.2
		C90.6,30.2,87.4,25.8,81.9,25.8z M86.8,37.8c0,4.1-1,9.1-5.7,9.1c-2.1,0-3.9-1.1-5.3-3.1V32.4c1.3-1.7,2.9-3.4,5.6-3.4
		C85,29,86.8,31.9,86.8,37.8z"/>
	<path class="st0" d="M109.9,44V33.3c0-5.1-2.6-7.6-7.8-7.6c-2.3,0-4.6,0.5-7.2,1.5l-0.5,0.2l1,2.9l0.5-0.2c2.3-0.8,4.2-1.2,5.8-1.2
		c3.3,0,4.6,1.3,4.6,4.5V35h-3.7c-6.2,0-9.8,2.8-9.8,7.7c0,4.4,2.9,7.2,7.4,7.2c2.8,0,5-1,6.7-3c0.5,1.6,1.7,2.5,3.6,2.9l0.5,0.1
		l0.9-2.7l-0.5-0.2C110.3,46.7,109.9,46.2,109.9,44z M106.3,38v5.3c-1.3,2.4-3.1,3.6-5.6,3.6c-2.7,0-4.1-1.5-4.1-4.2
		c0-3.1,2.2-4.7,6.4-4.7H106.3z"/>
	<path class="st0" d="M121.7,46.6c-0.4,0.2-0.8,0.2-1.3,0.2c-0.8,0-1.2-0.3-1.2-1.6V16.8l-3.6,0.4v28c0,3,1.7,4.8,4.5,4.8
		c0.9,0,2-0.2,2.8-0.7l0.5-0.2l-1.1-2.9L121.7,46.6z"/>
	<path class="st0" d="M136.7,45.9c-1.1,0.6-2,0.9-3.1,0.9c-1.9,0-2.7-1-2.7-3.3V29.4h5.4l0.5-3.1h-5.8v-5.7l-3.6,0.4v5.2h-3.7v3.1
		h3.7v14.3c0,4.1,2.2,6.4,6,6.4c1.8,0,3.4-0.5,5-1.5l0.4-0.3l-1.5-2.7L136.7,45.9z"/>
	<path class="st0" d="M158.2,47.2c-1-0.4-1.5-1-1.5-3.1V33.3c0-5.1-2.6-7.6-7.8-7.6c-2.3,0-4.6,0.5-7.2,1.5l-0.5,0.2l1,2.9l0.5-0.2
		c2.3-0.8,4.2-1.2,5.8-1.2c3.3,0,4.6,1.3,4.6,4.5V35h-3.7c-6.2,0-9.8,2.8-9.8,7.7c0,4.4,2.9,7.2,7.4,7.2c2.8,0,5-1,6.7-3
		c0.5,1.6,1.7,2.5,3.6,2.9l0.5,0.1l0.9-2.7L158.2,47.2z M153.1,38v5.3c-1.3,2.4-3.1,3.6-5.6,3.6c-2.7,0-4.1-1.5-4.1-4.2
		c0-3.1,2.2-4.7,6.4-4.7H153.1z"/>
	<path class="st0" d="M163.9,49.7c1,0,1.7-0.8,1.7-1.7c0-1-0.8-1.7-1.7-1.7c-1,0-1.7,0.7-1.7,1.7C162.2,48.9,162.9,49.7,163.9,49.7z
		"/>
	<rect x="169.3" y="27.1" class="st0" width="4.5" height="23"/>
	<path class="st0" d="M171.5,24.7c1.8,0,3-1.2,3-2.9c0-1.7-1.3-3-3-3c-1.7,0-3,1.2-3,3C168.5,23.5,169.8,24.7,171.5,24.7z"/>
	<path class="st0" d="M188.8,26.1c-6.3,0-10.3,4.7-10.3,12c0,7.4,3.9,12,10.3,12c6.2,0,10.3-4.7,10.3-12
		C199,30.6,195.2,26.1,188.8,26.1z M194.2,38.1c0,5.6-1.8,8.3-5.5,8.3c-3.6,0-5.5-2.8-5.5-8.3c0-5.5,1.9-8.3,5.5-8.3
		C192.4,29.8,194.2,32.6,194.2,38.1z"/>
	<g>
		<path class="st0" d="M78.4,54.9v10.4h-1l-0.1-1C76.7,65,76,65.5,75,65.5c-1.8,0-2.8-1.5-2.8-3.9c0-2.3,1.1-3.9,2.9-3.9
			c0.9,0,1.6,0.4,2,0.9v-3.9L78.4,54.9z M77.2,63.4v-3.7c-0.5-0.6-1-1-1.8-1c-1.2,0-1.9,1-1.9,3c0,2,0.7,2.9,1.8,2.9
			C76.1,64.6,76.7,64.1,77.2,63.4z"/>
		<path class="st0" d="M86.6,62h-4.8c0.1,1.8,1,2.5,2.1,2.5c0.8,0,1.3-0.2,2-0.7l0.5,0.7c-0.7,0.6-1.5,0.9-2.6,0.9
			c-2.1,0-3.3-1.5-3.3-3.8c0-2.3,1.2-4,3.1-4c2,0,3,1.4,3,3.7C86.7,61.6,86.6,61.9,86.6,62z M85.5,61c0-1.5-0.6-2.4-1.8-2.4
			c-1,0-1.7,0.7-1.8,2.5h3.7V61z"/>
		<path class="st0" d="M91.5,65.3h-1.4l-2.6-7.4h1.3l2,6.4l2-6.4h1.3L91.5,65.3z"/>
		<path class="st0" d="M101,62h-4.8c0.1,1.8,1,2.5,2.1,2.5c0.8,0,1.3-0.2,2-0.7l0.5,0.7c-0.7,0.6-1.5,0.9-2.6,0.9
			c-2.1,0-3.3-1.5-3.3-3.8c0-2.3,1.2-4,3.1-4c2,0,3,1.4,3,3.7C101,61.6,101,61.9,101,62z M99.8,61c0-1.5-0.6-2.4-1.8-2.4
			c-1,0-1.7,0.7-1.8,2.5h3.7V61z"/>
		<path class="st0" d="M103.2,63.9v-9l1.2-0.1v9.1c0,0.4,0.1,0.6,0.5,0.6c0.2,0,0.3,0,0.5-0.1l0.3,0.8c-0.3,0.1-0.6,0.2-1,0.2
			C103.7,65.5,103.2,65,103.2,63.9z"/>
		<path class="st0" d="M113.2,61.6c0,2.3-1.2,3.9-3.3,3.9c-2.1,0-3.3-1.5-3.3-3.9c0-2.3,1.2-3.9,3.3-3.9
			C112,57.7,113.2,59.2,113.2,61.6z M107.9,61.6c0,2,0.7,2.9,2,2.9c1.3,0,2-0.9,2-2.9c0-2-0.7-2.9-2-2.9
			C108.7,58.7,107.9,59.6,107.9,61.6z"/>
		<path class="st0" d="M121.5,61.6c0,2.3-1,3.9-2.9,3.9c-0.8,0-1.5-0.3-2-0.9v3.6l-1.2,0.1V57.9h1l0.1,1c0.6-0.8,1.3-1.2,2.2-1.2
			C120.7,57.7,121.5,59.2,121.5,61.6z M120.2,61.6c0-2-0.6-2.9-1.8-2.9c-0.8,0-1.4,0.6-1.9,1.2v3.7c0.4,0.6,1,1,1.7,1
			C119.6,64.5,120.2,63.6,120.2,61.6z"/>
		<path class="st0" d="M130.4,65.4c-0.5,1.6-1.4,2.7-3.4,2.9l-0.1-0.9c1.5-0.3,1.9-0.9,2.4-2.1h-0.4l-2.5-7.4h1.3l2.1,6.6l2-6.6h1.2
			L130.4,65.4z"/>
		<path class="st0" d="M140.3,61.6c0,2.3-1.2,3.9-3.3,3.9c-2.1,0-3.3-1.5-3.3-3.9c0-2.3,1.2-3.9,3.3-3.9
			C139.1,57.7,140.3,59.2,140.3,61.6z M135,61.6c0,2,0.7,2.9,2,2.9c1.3,0,2-0.9,2-2.9c0-2-0.7-2.9-2-2.9
			C135.7,58.7,135,59.6,135,61.6z"/>
		<path class="st0" d="M148,65.3h-1l-0.1-1.2c-0.6,0.9-1.3,1.4-2.3,1.4c-1.3,0-2.1-0.8-2.1-2.3v-5.3h1.2v5.2c0,1.1,0.4,1.5,1.2,1.5
			c0.8,0,1.5-0.6,1.9-1.3v-5.3h1.2V65.3z"/>
		<path class="st0" d="M154.6,57.8l-0.2,1.2c-0.2-0.1-0.4-0.1-0.7-0.1c-1,0-1.5,0.7-1.8,2.1v4.3h-1.2v-7.4h1l0.1,1.6
			c0.4-1.1,1.1-1.7,2-1.7C154.1,57.7,154.4,57.8,154.6,57.8z"/>
		<path class="st0" d="M164.8,58.5l-0.6,0.8c-0.5-0.4-1-0.6-1.6-0.6c-1.2,0-2,0.9-2,2.9c0,2,0.8,2.8,2,2.8c0.6,0,1.1-0.2,1.6-0.6
			l0.6,0.8c-0.6,0.5-1.4,0.8-2.2,0.8c-2,0-3.2-1.4-3.2-3.8c0-2.4,1.2-3.9,3.2-3.9C163.5,57.7,164.2,58,164.8,58.5z"/>
		<path class="st0" d="M172.2,64.7l-0.3,0.8c-0.7-0.1-1.2-0.4-1.4-1.1c-0.5,0.8-1.3,1.1-2.2,1.1c-1.5,0-2.3-0.9-2.3-2.3
			c0-1.6,1.2-2.4,3.2-2.4h1.2v-0.6c0-1.1-0.5-1.5-1.6-1.5c-0.6,0-1.2,0.1-2,0.4l-0.3-0.9c0.9-0.3,1.7-0.5,2.5-0.5
			c1.8,0,2.6,0.9,2.6,2.4v3.5C171.6,64.3,171.8,64.5,172.2,64.7z M170.4,63.4v-1.8h-1.1c-1.4,0-2.1,0.5-2.1,1.6
			c0,0.9,0.5,1.4,1.4,1.4C169.4,64.6,170,64.2,170.4,63.4z"/>
		<path class="st0" d="M178.2,57.8L178,59c-0.2-0.1-0.4-0.1-0.7-0.1c-1,0-1.5,0.7-1.8,2.1v4.3h-1.2v-7.4h1l0.1,1.6
			c0.4-1.1,1.1-1.7,2-1.7C177.7,57.7,178,57.8,178.2,57.8z"/>
		<path class="st0" d="M185.1,62h-4.8c0.1,1.8,1,2.5,2.1,2.5c0.8,0,1.3-0.2,2-0.7l0.5,0.7c-0.7,0.6-1.5,0.9-2.6,0.9
			c-2.1,0-3.3-1.5-3.3-3.8c0-2.3,1.2-4,3.1-4c2,0,3,1.4,3,3.7C185.2,61.6,185.2,61.9,185.1,62z M184,61c0-1.5-0.6-2.4-1.8-2.4
			c-1,0-1.7,0.7-1.8,2.5h3.7V61z"/>
		<path class="st0" d="M192.9,62h-4.8c0.1,1.8,1,2.5,2.1,2.5c0.8,0,1.3-0.2,2-0.7l0.5,0.7c-0.7,0.6-1.5,0.9-2.6,0.9
			c-2.1,0-3.3-1.5-3.3-3.8c0-2.3,1.2-4,3.1-4c2,0,3,1.4,3,3.7C192.9,61.6,192.9,61.9,192.9,62z M191.7,61c0-1.5-0.6-2.4-1.8-2.4
			c-1,0-1.7,0.7-1.8,2.5h3.7V61z"/>
		<path class="st0" d="M199,57.8l-0.2,1.2c-0.2-0.1-0.4-0.1-0.7-0.1c-1,0-1.5,0.7-1.8,2.1v4.3h-1.2v-7.4h1l0.1,1.6
			c0.4-1.1,1.1-1.7,2-1.7C198.5,57.7,198.8,57.8,199,57.8z"/>
	</g>
	<g>
		<polygon class="st0" points="43.2,26.4 43.2,26.4 43.2,42.2 43.2,42.2 29.5,50.1 29.5,65.6 56.6,49.9 56.6,18.6 		"/>
		<polygon class="st0" points="28.8,1.6 1.7,17.3 15.1,25 28.8,17.1 42.4,25 55.9,17.3 		"/>
		<polygon class="st0" points="1.7,1.6 15.1,1.6 15.1,6.8 1.7,14.4 		"/>
		<polygon class="st0" points="56.4,65.6 43,65.6 43,60.5 56.4,52.9 		"/>
		<polygon class="st0" points="14.4,42.2 14.4,42.2 14.4,26.4 14.4,26.4 1,18.7 1,49.9 28.1,65.6 28.1,50.1 		"/>
	</g>
</g>
</svg>
